<svg width="248" height="291" viewBox="0 0 248 291" fill="none" xmlns="http://www.w3.org/2000/svg">
<path fill-rule="evenodd" clip-rule="evenodd" d="M135.6 88.23C135.75 88.64 150.96 98.98 154.6 103.03C154.6 103.03 160.01 90.83 160.19 90.44C161.58 87.35 157.77 81.01 164.99 77.63C168.2 76.12 170.2 78.86 167.84 81.04C167.481 81.4211 167.04 81.7153 166.55 81.9L169.74 81.78C172.74 81.86 182.5 83.32 182.4 85.78C182.33 87.54 181.32 87.39 181.1 87.52C181.269 87.6169 181.413 87.7506 181.523 87.9112C181.633 88.0718 181.705 88.2551 181.734 88.4475C181.762 88.6399 181.747 88.8362 181.69 89.022C181.632 89.2077 181.533 89.378 181.4 89.52C180.35 90.81 178.78 90.04 179.4 90.42C180.71 91.19 179.57 93.66 177.77 93.25C172.87 92.11 170.88 93.56 169.94 95.38C165.81 103.38 162.94 113.38 159.94 116.38C152.99 123.2 145.79 113.81 136.94 97.62C133.87 91.99 130.31 96.17 134.21 91.09C134.37 90.85 135.6 88.23 135.6 88.23Z" fill="#D4E157"/>
<path d="M135.6 88.23C135.75 88.64 150.96 98.98 154.6 103.03C154.6 103.03 160.01 90.83 160.19 90.44C161.58 87.35 157.77 81.01 164.99 77.63C168.2 76.12 170.2 78.86 167.84 81.04C167.481 81.4211 167.04 81.7153 166.55 81.9L169.74 81.78C172.74 81.86 182.5 83.32 182.4 85.78C182.33 87.54 181.32 87.39 181.1 87.52C181.269 87.6169 181.413 87.7506 181.523 87.9112C181.633 88.0718 181.705 88.2551 181.734 88.4475C181.762 88.6399 181.747 88.8362 181.69 89.022C181.632 89.2077 181.533 89.378 181.4 89.52C180.35 90.81 178.78 90.04 179.4 90.42C180.71 91.19 179.57 93.66 177.77 93.25C172.87 92.11 170.88 93.56 169.94 95.38C165.81 103.38 162.94 113.38 159.94 116.38C152.99 123.2 145.79 113.81 136.94 97.62C133.87 91.99 130.31 96.17 134.21 91.09C134.37 90.85 135.6 88.23 135.6 88.23Z" stroke="black" stroke-width="0.57" stroke-miterlimit="22.93" stroke-linecap="round"/>
<path fill-rule="evenodd" clip-rule="evenodd" d="M139.87 91.14L143.24 94.3C145.24 103.58 146.69 105.88 148.24 114.97C146.24 113.31 146.53 117.82 144.53 116.16L139.87 91.14Z" fill="black"/>
<path d="M139.87 91.14L143.24 94.3C145.24 103.58 146.69 105.88 148.24 114.97C146.24 113.31 146.53 117.82 144.53 116.16L139.87 91.14Z" stroke="black" stroke-width="0.57" stroke-miterlimit="22.93" stroke-linecap="round"/>
<path fill-rule="evenodd" clip-rule="evenodd" d="M110 90.0899C105.48 93.3399 96.1499 99.9999 93.3999 103C93.3999 103 87.9899 90.7999 87.8099 90.4099C86.4199 87.3499 90.2299 80.9999 82.9999 77.6299C79.7999 76.1199 77.7999 78.8599 80.1599 80.9999C80.5188 81.381 80.96 81.6752 81.4499 81.8599L78.2599 81.7399C75.2599 81.8199 65.4999 83.2799 65.5999 85.7399C65.6699 87.4999 66.6799 87.3499 66.9099 87.4799C66.7405 87.5759 66.5949 87.7089 66.4842 87.8691C66.3735 88.0293 66.3005 88.2125 66.2707 88.4049C66.2409 88.5973 66.255 88.794 66.312 88.9802C66.369 89.1663 66.4674 89.3372 66.5999 89.4799C67.6499 90.7699 69.2199 89.9999 68.5999 90.3799C67.2899 91.1499 68.4299 93.6199 70.2299 93.2099C75.1299 92.0699 77.1199 93.5199 78.0599 95.3399C82.1899 103.34 85.0599 113.34 88.0599 116.34C92.2799 120.48 96.0599 117.84 101.29 113.24C99.7642 119.029 99.1502 125.021 99.4699 131H150.65C149.92 108 139.73 103.23 139.73 80.7299C139.73 72.1799 139.73 72.3199 139.73 63.7299C139.73 45.4299 110.94 44.7299 110.97 63.7299V82.1899C110.985 84.8539 110.659 87.5088 110 90.0899V90.0899Z" fill="#D4E157"/>
<path d="M110 90.0899C105.48 93.3399 96.1499 99.9999 93.3999 103C93.3999 103 87.9899 90.7999 87.8099 90.4099C86.4199 87.3499 90.2299 80.9999 82.9999 77.6299C79.7999 76.1199 77.7999 78.8599 80.1599 80.9999C80.5188 81.381 80.96 81.6752 81.4499 81.8599L78.2599 81.7399C75.2599 81.8199 65.4999 83.2799 65.5999 85.7399C65.6699 87.4999 66.6799 87.3499 66.9099 87.4799C66.7405 87.5759 66.5949 87.7089 66.4842 87.8691C66.3735 88.0293 66.3005 88.2125 66.2707 88.4049C66.2409 88.5973 66.255 88.794 66.312 88.9802C66.369 89.1663 66.4674 89.3372 66.5999 89.4799C67.6499 90.7699 69.2199 89.9999 68.5999 90.3799C67.2899 91.1499 68.4299 93.6199 70.2299 93.2099C75.1299 92.0699 77.1199 93.5199 78.0599 95.3399C82.1899 103.34 85.0599 113.34 88.0599 116.34C92.2799 120.48 96.0599 117.84 101.29 113.24C99.7642 119.029 99.1502 125.021 99.4699 131H150.65C149.92 108 139.73 103.23 139.73 80.7299C139.73 72.1799 139.73 72.3199 139.73 63.7299C139.73 45.4299 110.94 44.7299 110.97 63.7299V82.1899C110.985 84.8539 110.659 87.5088 110 90.0899V90.0899Z" stroke="black" stroke-width="0.57" stroke-miterlimit="22.93" stroke-linecap="round"/>
<path fill-rule="evenodd" clip-rule="evenodd" d="M154.59 103C154.41 103.41 152.86 106.8 152.41 107.81C153.023 106.304 153.313 104.685 153.26 103.06C153.26 103.06 153.13 101.65 153.26 101.84C153.569 102.345 153.927 102.817 154.33 103.25C154.34 103.16 154.55 102.94 154.59 103Z" fill="black"/>
<path d="M154.59 103C154.41 103.41 152.86 106.8 152.41 107.81C153.023 106.304 153.313 104.685 153.26 103.06C153.26 103.06 153.13 101.65 153.26 101.84C153.569 102.345 153.927 102.817 154.33 103.25C154.34 103.16 154.55 102.94 154.59 103Z" stroke="black" stroke-width="0.57" stroke-linecap="round" stroke-linejoin="round"/>
<path fill-rule="evenodd" clip-rule="evenodd" d="M93.4099 103C93.5899 103.41 95.1399 106.8 95.5899 107.81C94.9767 106.304 94.6871 104.685 94.7399 103.06C94.7399 103.06 94.8699 101.65 94.7399 101.84C94.4312 102.345 94.0727 102.817 93.6699 103.25C93.6699 103.25 93.4499 102.94 93.4099 103Z" fill="black"/>
<path d="M93.4099 103C93.5899 103.41 95.1399 106.8 95.5899 107.81C94.9767 106.304 94.6871 104.685 94.7399 103.06C94.7399 103.06 94.8699 101.65 94.7399 101.84C94.4312 102.345 94.0727 102.817 93.6699 103.25C93.6699 103.25 93.4499 102.94 93.4099 103Z" stroke="black" stroke-width="0.57" stroke-linecap="round" stroke-linejoin="round"/>
<path fill-rule="evenodd" clip-rule="evenodd" d="M145.48 224.37H124.48C124.313 224.377 124.154 224.447 124.036 224.566C123.917 224.684 123.847 224.843 123.84 225.01L122.84 239.17H156.42C157.05 233.24 152.7 231.44 147.58 228.9C145.64 227.43 145.48 224.37 145.48 224.37Z" fill="#D4E157"/>
<path d="M145.48 224.37H124.48C124.313 224.377 124.154 224.447 124.036 224.566C123.917 224.684 123.847 224.843 123.84 225.01L122.84 239.17H156.42C157.05 233.24 152.7 231.44 147.58 228.9C145.64 227.43 145.48 224.37 145.48 224.37Z" stroke="black" stroke-width="0.57" stroke-linecap="round" stroke-linejoin="round"/>
<path d="M156.46 236.9H122.48C122.127 236.9 121.84 237.187 121.84 237.54V240.57C121.84 240.924 122.127 241.21 122.48 241.21H156.46C156.814 241.21 157.1 240.924 157.1 240.57V237.54C157.1 237.187 156.814 236.9 156.46 236.9Z" fill="#D4E157"/>
<path d="M156.46 236.9H122.48C122.127 236.9 121.84 237.187 121.84 237.54V240.57C121.84 240.924 122.127 241.21 122.48 241.21H156.46C156.814 241.21 157.1 240.924 157.1 240.57V237.54C157.1 237.187 156.814 236.9 156.46 236.9Z" stroke="black" stroke-width="0.57" stroke-linecap="round" stroke-linejoin="round"/>
<path fill-rule="evenodd" clip-rule="evenodd" d="M124.8 224.37H103.8C103.633 224.377 103.474 224.447 103.356 224.566C103.237 224.684 103.167 224.843 103.16 225.01L102.16 239.17H135.74C136.37 233.24 132.02 231.44 126.9 228.9C125 227.43 124.8 224.37 124.8 224.37Z" fill="#D4E157"/>
<path d="M124.8 224.37H103.8C103.633 224.377 103.474 224.447 103.356 224.566C103.237 224.684 103.167 224.843 103.16 225.01L102.16 239.17H135.74C136.37 233.24 132.02 231.44 126.9 228.9C125 227.43 124.8 224.37 124.8 224.37Z" stroke="black" stroke-width="0.57" stroke-linecap="round" stroke-linejoin="round"/>
<path d="M135.79 236.9H101.8C101.446 236.9 101.16 237.187 101.16 237.54V240.57C101.16 240.924 101.446 241.21 101.8 241.21H135.79C136.143 241.21 136.43 240.924 136.43 240.57V237.54C136.43 237.187 136.143 236.9 135.79 236.9Z" fill="#D4E157"/>
<path d="M135.79 236.9H101.8C101.446 236.9 101.16 237.187 101.16 237.54V240.57C101.16 240.924 101.446 241.21 101.8 241.21H135.79C136.143 241.21 136.43 240.924 136.43 240.57V237.54C136.43 237.187 136.143 236.9 135.79 236.9Z" stroke="black" stroke-width="0.57" stroke-linecap="round" stroke-linejoin="round"/>
<path fill-rule="evenodd" clip-rule="evenodd" d="M139.71 63.75C139.71 72.3 139.71 72.16 139.71 80.75C139.705 83.2629 139.848 85.774 140.14 88.27H110.39C110.78 86.2938 110.978 84.2843 110.98 82.27V63.81C110.92 44.8 139.68 45.45 139.71 63.75Z" fill="#D4E157"/>
<path d="M139.71 63.75C139.71 72.3 139.71 72.16 139.71 80.75C139.705 83.2629 139.848 85.774 140.14 88.27H110.39C110.78 86.2938 110.978 84.2843 110.98 82.27V63.81C110.92 44.8 139.68 45.45 139.71 63.75Z" stroke="black" stroke-width="0.57" stroke-linecap="round" stroke-linejoin="round"/>
<path fill-rule="evenodd" clip-rule="evenodd" d="M111 62.2299C112.43 45.3599 138.11 45.9099 139.63 62.2299H111Z" fill="#D4E157"/>
<path d="M111 62.2299C112.43 45.3599 138.11 45.9099 139.63 62.2299H111Z" stroke="black" stroke-width="0.57" stroke-linecap="round" stroke-linejoin="round"/>
<path fill-rule="evenodd" clip-rule="evenodd" d="M99.56 130.72C99.5451 130.926 99.5451 131.134 99.56 131.34C99.38 141.01 102.5 146.34 102.47 155.17C102.47 174.32 101.9 223.55 101.95 224.55H146.7C146.7 224.55 147.1 174.44 146.82 155.66C146.68 145.66 149.58 142.8 150.66 131.45C150.675 131.207 150.675 130.963 150.66 130.72H99.56Z" fill="#D4E157"/>
<path d="M99.56 130.72C99.5451 130.926 99.5451 131.134 99.56 131.34C99.38 141.01 102.5 146.34 102.47 155.17C102.47 174.32 101.9 223.55 101.95 224.55H146.7C146.7 224.55 147.1 174.44 146.82 155.66C146.68 145.66 149.58 142.8 150.66 131.45C150.675 131.207 150.675 130.963 150.66 130.72H99.56Z" stroke="black" stroke-width="0.57" stroke-linecap="round" stroke-linejoin="round"/>
<path fill-rule="evenodd" clip-rule="evenodd" d="M138.43 73.71C138.101 73.7099 137.78 73.6129 137.507 73.4311C137.233 73.2493 137.019 72.9908 136.891 72.688C136.764 72.3851 136.729 72.0514 136.79 71.7286C136.851 71.4058 137.006 71.1083 137.236 70.8732C137.465 70.6381 137.759 70.476 138.08 70.4071C138.402 70.3382 138.736 70.3656 139.042 70.4859C139.348 70.6062 139.611 70.814 139.799 71.0833C139.988 71.3527 140.092 71.6715 140.1 72C140.105 72.2226 140.066 72.4441 139.985 72.6514C139.903 72.8586 139.781 73.0475 139.625 73.2068C139.47 73.3661 139.284 73.4927 139.078 73.5792C138.873 73.6656 138.653 73.7101 138.43 73.71V73.71Z" fill="#FEFEFE"/>
<path d="M138.43 73.71C138.101 73.7099 137.78 73.6129 137.507 73.4311C137.233 73.2493 137.019 72.9908 136.891 72.688C136.764 72.3851 136.729 72.0514 136.79 71.7286C136.851 71.4058 137.006 71.1083 137.236 70.8732C137.465 70.6381 137.759 70.476 138.08 70.4071C138.402 70.3382 138.736 70.3656 139.042 70.4859C139.348 70.6062 139.611 70.814 139.799 71.0833C139.988 71.3527 140.092 71.6715 140.1 72C140.105 72.2226 140.066 72.4441 139.985 72.6514C139.903 72.8586 139.781 73.0475 139.625 73.2068C139.47 73.3661 139.284 73.4927 139.078 73.5792C138.873 73.6656 138.653 73.7101 138.43 73.71V73.71Z" stroke="black" stroke-width="0.57" stroke-linecap="round" stroke-linejoin="round"/>
<path fill-rule="evenodd" clip-rule="evenodd" d="M124.41 70.37C124.742 70.3701 125.066 70.4691 125.342 70.6545C125.617 70.8398 125.831 71.103 125.956 71.4105C126.081 71.718 126.112 72.0558 126.044 72.3808C125.977 72.7058 125.814 73.0032 125.576 73.2351C125.338 73.467 125.037 73.6228 124.711 73.6826C124.384 73.7425 124.047 73.7036 123.743 73.5711C123.438 73.4385 123.18 73.2183 123.002 72.9384C122.823 72.6586 122.732 72.3319 122.74 72C122.75 71.5641 122.931 71.1495 123.243 70.8449C123.555 70.5403 123.974 70.3699 124.41 70.37Z" fill="#FEFEFE"/>
<path d="M124.41 70.37C124.742 70.3701 125.066 70.4691 125.342 70.6545C125.617 70.8398 125.831 71.103 125.956 71.4105C126.081 71.718 126.112 72.0558 126.044 72.3808C125.977 72.7058 125.814 73.0032 125.576 73.2351C125.338 73.467 125.037 73.6228 124.711 73.6826C124.384 73.7425 124.047 73.7036 123.743 73.5711C123.438 73.4385 123.18 73.2183 123.002 72.9384C122.823 72.6586 122.732 72.3319 122.74 72C122.75 71.5641 122.931 71.1495 123.243 70.8449C123.555 70.5403 123.974 70.3699 124.41 70.37Z" stroke="black" stroke-width="0.57" stroke-linecap="round" stroke-linejoin="round"/>
<path d="M125 155.87C125 151.78 131.72 152.16 134.17 146.35" stroke="black" stroke-width="0.57" stroke-linecap="round" stroke-linejoin="round"/>
<path d="M137.81 65.56C138.469 65.4636 139.142 65.5682 139.74 65.86" stroke="black" stroke-width="0.57" stroke-miterlimit="22.93" stroke-linecap="round"/>
<path d="M125.11 65.56C124.451 65.4636 123.778 65.5682 123.18 65.86" stroke="black" stroke-width="0.57" stroke-miterlimit="22.93" stroke-linecap="round"/>
<path fill-rule="evenodd" clip-rule="evenodd" d="M111.22 85.64H139.72C140.25 85.64 140.759 85.8507 141.134 86.2258C141.509 86.6009 141.72 87.1096 141.72 87.64C141.72 88.1704 141.509 88.6792 141.134 89.0542C140.759 89.4293 140.25 89.64 139.72 89.64H111.22C110.69 89.64 110.181 89.4293 109.806 89.0542C109.431 88.6792 109.22 88.1704 109.22 87.64C109.22 87.1096 109.431 86.6009 109.806 86.2258C110.181 85.8507 110.69 85.64 111.22 85.64Z" fill="#D4E157"/>
<path d="M111.22 85.64H139.72C140.25 85.64 140.759 85.8507 141.134 86.2258C141.509 86.6009 141.72 87.1096 141.72 87.64C141.72 88.1704 141.509 88.6792 141.134 89.0542C140.759 89.4293 140.25 89.64 139.72 89.64H111.22C110.69 89.64 110.181 89.4293 109.806 89.0542C109.431 88.6792 109.22 88.1704 109.22 87.64C109.22 87.1096 109.431 86.6009 109.806 86.2258C110.181 85.8507 110.69 85.64 111.22 85.64Z" stroke="black" stroke-width="0.57" stroke-miterlimit="22.93" stroke-linecap="round"/>
<path d="M110.95 62.09H154.79" stroke="black" stroke-width="0.57" stroke-miterlimit="22.93" stroke-linecap="round"/>
<path fill-rule="evenodd" clip-rule="evenodd" d="M140.12 89.59L140.55 91.36C134.992 90.4607 129.385 89.8898 123.76 89.65L140.12 89.59Z" fill="black"/>
<path d="M140.12 89.59L140.55 91.36C134.992 90.4607 129.385 89.8898 123.76 89.65L140.12 89.59Z" stroke="black" stroke-width="0.57" stroke-miterlimit="22.93" stroke-linecap="round"/>
<path fill-rule="evenodd" clip-rule="evenodd" d="M145.66 224.51L146.09 226.28C140.535 225.382 134.932 224.814 129.31 224.58L145.66 224.51Z" fill="black"/>
<path d="M145.66 224.51L146.09 226.28C140.535 225.382 134.932 224.814 129.31 224.58L145.66 224.51Z" stroke="black" stroke-width="0.57" stroke-miterlimit="22.93" stroke-linecap="round"/>
<path fill-rule="evenodd" clip-rule="evenodd" d="M124.7 224.51L125.13 226.28C119.575 225.382 113.972 224.814 108.35 224.58L124.7 224.51Z" fill="black"/>
<path d="M124.7 224.51L125.13 226.28C119.575 225.382 113.972 224.814 108.35 224.58L124.7 224.51Z" stroke="black" stroke-width="0.57" stroke-miterlimit="22.93" stroke-linecap="round"/>
<path fill-rule="evenodd" clip-rule="evenodd" d="M139.26 62L139.7 63.77C134.142 62.8708 128.535 62.2998 122.91 62.06L139.26 62Z" fill="black"/>
<path d="M139.26 62L139.7 63.77C134.142 62.8708 128.535 62.2998 122.91 62.06L139.26 62Z" stroke="black" stroke-width="0.57" stroke-miterlimit="22.93" stroke-linecap="round"/>
<path fill-rule="evenodd" clip-rule="evenodd" d="M138.28 71.87C138.33 71.87 138.379 71.89 138.414 71.9256C138.45 71.9613 138.47 72.0096 138.47 72.06C138.472 72.0853 138.468 72.1107 138.459 72.1344C138.45 72.1581 138.436 72.1796 138.418 72.1976C138.4 72.2155 138.378 72.2295 138.354 72.2385C138.331 72.2475 138.305 72.2514 138.28 72.25C138.23 72.25 138.181 72.23 138.146 72.1943C138.11 72.1587 138.09 72.1104 138.09 72.06C138.093 72.0104 138.113 71.9634 138.148 71.9283C138.184 71.8932 138.23 71.8724 138.28 71.87V71.87Z" fill="black"/>
<path d="M138.28 71.87C138.33 71.87 138.379 71.89 138.414 71.9256C138.45 71.9613 138.47 72.0096 138.47 72.06C138.472 72.0853 138.468 72.1107 138.459 72.1344C138.45 72.1581 138.436 72.1796 138.418 72.1976C138.4 72.2155 138.378 72.2295 138.354 72.2385C138.331 72.2475 138.305 72.2514 138.28 72.25C138.23 72.25 138.181 72.23 138.146 72.1943C138.11 72.1587 138.09 72.1104 138.09 72.06C138.093 72.0104 138.113 71.9634 138.148 71.9283C138.184 71.8932 138.23 71.8724 138.28 71.87V71.87Z" stroke="black" stroke-width="0.57" stroke-linecap="round" stroke-linejoin="round"/>
<path fill-rule="evenodd" clip-rule="evenodd" d="M124.44 72.27C124.39 72.2676 124.343 72.2468 124.308 72.2117C124.273 72.1766 124.252 72.1296 124.25 72.08C124.25 72.0296 124.27 71.9813 124.306 71.9457C124.341 71.9101 124.39 71.89 124.44 71.89C124.466 71.8887 124.492 71.8926 124.516 71.9015C124.54 71.9105 124.562 71.9242 124.581 71.942C124.6 71.9598 124.614 71.9812 124.625 72.0049C124.635 72.0287 124.64 72.0542 124.64 72.08C124.637 72.1313 124.615 72.1797 124.578 72.215C124.541 72.2504 124.491 72.2701 124.44 72.27V72.27Z" fill="black"/>
<path d="M124.44 72.27C124.39 72.2676 124.343 72.2468 124.308 72.2117C124.273 72.1766 124.252 72.1296 124.25 72.08C124.25 72.0296 124.27 71.9813 124.306 71.9457C124.341 71.9101 124.39 71.89 124.44 71.89C124.466 71.8887 124.492 71.8926 124.516 71.9015C124.54 71.9105 124.562 71.9242 124.581 71.942C124.6 71.9598 124.614 71.9812 124.625 72.0049C124.635 72.0287 124.64 72.0542 124.64 72.08C124.637 72.1313 124.615 72.1797 124.578 72.215C124.541 72.2504 124.491 72.2701 124.44 72.27V72.27Z" stroke="black" stroke-width="0.57" stroke-linecap="round" stroke-linejoin="round"/>
<path d="M125.03 224.55V155.74" stroke="black" stroke-width="0.57" stroke-miterlimit="22.93" stroke-linecap="round"/>
<path d="M181.29 87.5C179.326 86.6248 177.218 86.1164 175.07 86" stroke="black" stroke-width="0.57" stroke-miterlimit="22.93" stroke-linecap="round"/>
<path d="M66.71 87.5C68.6744 86.6248 70.7825 86.1164 72.93 86" stroke="black" stroke-width="0.57" stroke-miterlimit="22.93" stroke-linecap="round"/>
<path d="M179.59 90.39C179.02 90.17 178.45 89.49 174.88 89.49" stroke="black" stroke-width="0.57" stroke-miterlimit="22.93" stroke-linecap="round"/>
<path d="M68.4099 90.39C68.9799 90.17 69.5499 89.49 73.1199 89.49" stroke="black" stroke-width="0.57" stroke-miterlimit="22.93" stroke-linecap="round"/>
<path d="M130.11 77.78H134.36" stroke="#373435" stroke-width="0.57" stroke-miterlimit="22.93" stroke-linecap="round"/>
<path d="M166.76 81.8C166.67 83.18 167.21 82.74 168.26 84.28C168.753 85.0221 169.093 85.855 169.26 86.73" stroke="#373435" stroke-width="0.57" stroke-miterlimit="22.93" stroke-linecap="round"/>
<path d="M81.24 81.8C81.33 83.18 80.79 82.74 79.74 84.28C79.2471 85.0221 78.9071 85.855 78.74 86.73" stroke="#373435" stroke-width="0.57" stroke-miterlimit="22.93" stroke-linecap="round"/>
<path d="M100.48 113.86L107.94 106.95" stroke="black" stroke-width="0.57" stroke-miterlimit="22.93" stroke-linecap="round"/>
<path fill-rule="evenodd" clip-rule="evenodd" d="M101.29 113.23L107.56 107.3L100.43 116.84L101.29 113.23Z" fill="black"/>
<path d="M101.29 113.23L107.56 107.3L100.43 116.84L101.29 113.23Z" stroke="black" stroke-width="0.57" stroke-linecap="round" stroke-linejoin="round"/>
</svg>
