<svg width="24" height="24" viewBox="0 0 24 24" fill="none" xmlns="http://www.w3.org/2000/svg">
<path fill-rule="evenodd" clip-rule="evenodd" d="M12 0C18.6274 0 24 5.37258 24 12C24 18.6274 18.6274 24 12 24C5.37258 24 0 18.6274 0 12C0 5.37258 5.37258 0 12 0V0Z" fill="#CFD8DC"/>
<path d="M12.18 14.032V13.72C12.18 13.084 12.6 12.688 13.272 12.208C13.98 11.68 14.772 11.068 14.772 9.832C14.772 8.368 13.752 7.252 12.108 7.252C10.596 7.252 9.408 8.416 9.408 9.916H10.248C10.248 8.872 11.064 8.044 12.108 8.044C13.212 8.044 13.92 8.836 13.92 9.856C13.92 10.732 13.332 11.224 12.708 11.704C12.036 12.208 11.4 12.736 11.4 13.72V14.032H12.18ZM11.844 16.168C12.252 16.168 12.588 15.82 12.588 15.412C12.588 15.004 12.252 14.668 11.844 14.668C11.424 14.668 11.088 15.004 11.088 15.412C11.088 15.82 11.424 16.168 11.844 16.168Z" fill="white"/>
</svg>
