<svg width="24" height="24" viewBox="0 0 24 24" fill="none" xmlns="http://www.w3.org/2000/svg">
<g clip-path="url(#clip0_102_103)">
<path fill-rule="evenodd" clip-rule="evenodd" d="M12 0C18.6274 0 24 5.37258 24 12C24 18.6274 18.6274 24 12 24C5.37258 24 0 18.6274 0 12C0 5.37258 5.37258 0 12 0V0Z" fill="#CFD8DC"/>
<path fill-rule="evenodd" clip-rule="evenodd" d="M10.9944 13.3633L24.3055 26.6744L24.3067 26.675L10.9956 13.3639L10.9944 13.3633Z" fill="#B0BEC5"/>
<path fill-rule="evenodd" clip-rule="evenodd" d="M10.5819 13.1494L23.893 26.4605L23.8819 26.4537L10.5708 13.1426L10.5819 13.1494Z" fill="#B0BEC5"/>
<path fill-rule="evenodd" clip-rule="evenodd" d="M10.5902 13.1533L23.9013 26.4644L23.8376 26.4293L10.5265 13.1182L10.5902 13.1533Z" fill="#B0BEC5"/>
<path fill-rule="evenodd" clip-rule="evenodd" d="M9.69553 12.6738L23.0066 25.9849L23.0067 25.985L23.0068 25.985L23.0069 25.9851L23.007 25.9851L9.69588 12.674L9.69581 12.6739L9.6957 12.6739L9.69563 12.6739L9.69553 12.6738Z" fill="#B0BEC5"/>
<path fill-rule="evenodd" clip-rule="evenodd" d="M9.69588 12.6741L23.007 25.9852L23.0015 25.9833L22.996 25.9814L22.9904 25.9795L22.9849 25.9776L22.9794 25.9758L22.9738 25.9739L22.9683 25.9721L22.9627 25.9703L9.65158 12.6592L9.65714 12.661L9.66269 12.6628L9.66824 12.6646L9.67376 12.6665L9.67932 12.6684L9.68484 12.6703L9.69036 12.6722L9.69588 12.6741Z" fill="#B0BEC5"/>
<path fill-rule="evenodd" clip-rule="evenodd" d="M15.2488 10.1856L28.5599 23.4967L28.5572 23.4967L15.2461 10.1855L15.2488 10.1856Z" fill="#B0BEC5"/>
<path fill-rule="evenodd" clip-rule="evenodd" d="M18.2924 11.9766L31.6035 25.2877L31.6613 25.3527L31.7122 25.4125L31.7563 25.4664L31.7935 25.5141L31.8237 25.555L31.8469 25.5886L31.8629 25.6144L31.8717 25.6319L31.8733 25.6405L18.5622 12.3294L18.5606 12.3207L18.5518 12.3032L18.5357 12.2775L18.5126 12.2439L18.4824 12.203L18.4452 12.1553L18.4011 12.1013L18.3502 12.0416L18.2924 11.9766Z" fill="#B0BEC5"/>
<path fill-rule="evenodd" clip-rule="evenodd" d="M18.5622 12.3291L31.8733 25.6402L31.8659 25.6538L31.8581 25.6674L31.8498 25.6811L31.8412 25.6949L31.8323 25.7086L31.823 25.7224L31.8135 25.7363L31.8036 25.7502L18.4925 12.4391L18.5023 12.4252L18.5119 12.4113L18.5212 12.3975L18.5301 12.3837L18.5387 12.37L18.5469 12.3563L18.5548 12.3427L18.5622 12.3291Z" fill="#B0BEC5"/>
<path fill-rule="evenodd" clip-rule="evenodd" d="M18.4943 12.4385L31.8055 25.7496L31.7791 25.7851L18.468 12.474L18.4943 12.4385Z" fill="#B0BEC5"/>
<path fill-rule="evenodd" clip-rule="evenodd" d="M18.468 12.4736L31.7791 25.7848L31.7694 25.7977L31.7587 25.8111L31.7473 25.825L31.7351 25.8392L31.7224 25.8537L31.7093 25.8684L31.6957 25.8831L31.6819 25.8979L31.6679 25.9125L31.6539 25.9269L31.6399 25.941L31.6261 25.9547L31.6126 25.968L31.5994 25.9806L31.5867 25.9926L31.5746 26.0038L18.2635 12.6927L18.2756 12.6815L18.2883 12.6695L18.3015 12.6568L18.315 12.6436L18.3288 12.6299L18.3428 12.6158L18.3568 12.6014L18.3708 12.5867L18.3846 12.572L18.3981 12.5572L18.4113 12.5426L18.424 12.5281L18.4361 12.5139L18.4476 12.5L18.4583 12.4865L18.468 12.4736Z" fill="#B0BEC5"/>
<path fill-rule="evenodd" clip-rule="evenodd" d="M18.2646 12.6924L31.5757 26.0035L31.4885 26.0801L18.1774 12.769L18.2646 12.6924Z" fill="#B0BEC5"/>
<path fill-rule="evenodd" clip-rule="evenodd" d="M18.1774 12.7695L31.4885 26.0806L31.4635 26.1007L31.4392 26.1201L31.4154 26.1388L31.3921 26.1569L31.369 26.1746L31.3462 26.1918L31.3235 26.2088L31.3007 26.2254L31.2778 26.2419L31.2546 26.2582L31.2311 26.2745L31.207 26.2909L31.1824 26.3074L31.1571 26.324L31.1309 26.341L31.1038 26.3583L17.7927 13.0472L17.8198 13.0299L17.846 13.0129L17.8713 12.9963L17.8959 12.9798L17.92 12.9634L17.9435 12.9471L17.9667 12.9308L17.9896 12.9143L18.0124 12.8976L18.0351 12.8807L18.0579 12.8635L18.0809 12.8458L18.1043 12.8277L18.1281 12.809L18.1524 12.7896L18.1774 12.7695Z" fill="#B0BEC5"/>
<path fill-rule="evenodd" clip-rule="evenodd" d="M17.7927 13.0469L31.1038 26.358L31.1032 26.3582L17.7921 13.0471L17.7927 13.0469Z" fill="#B0BEC5"/>
<path fill-rule="evenodd" clip-rule="evenodd" d="M17.792 13.0469L31.1032 26.358L30.9341 26.4598L17.623 13.1487L17.792 13.0469Z" fill="#B0BEC5"/>
<path fill-rule="evenodd" clip-rule="evenodd" d="M17.6231 13.1494L30.9341 26.4606L30.5619 26.6561L17.2508 13.345L17.6231 13.1494Z" fill="#B0BEC5"/>
<path fill-rule="evenodd" clip-rule="evenodd" d="M17.2508 13.3447L30.5619 26.6558L30.1723 26.8287L16.8612 13.5176L17.2508 13.3447Z" fill="#B0BEC5"/>
<path fill-rule="evenodd" clip-rule="evenodd" d="M16.8612 13.5176L30.1723 26.8287L29.9541 26.9127L16.643 13.6016L16.8612 13.5176Z" fill="#B0BEC5"/>
<path fill-rule="evenodd" clip-rule="evenodd" d="M16.643 13.6016L29.9541 26.9127L29.9378 26.9189L29.9207 26.9253L29.9029 26.9319L29.8844 26.9387L29.8652 26.9456L29.8456 26.9525L29.8253 26.9596L29.8046 26.9668L29.7834 26.9741L29.7619 26.9814L29.74 26.9887L29.7178 26.9961L29.6954 27.0035L29.6728 27.0109L29.6501 27.0182L29.6273 27.0255L29.6045 27.0328L29.5816 27.04L29.5588 27.0471L29.5362 27.0541L29.5136 27.061L29.4913 27.0678L29.4693 27.0745L29.4476 27.0809L29.4261 27.0872L29.4052 27.0933L29.3846 27.0992L29.3646 27.1049L29.3451 27.1103L29.3263 27.1155L29.3081 27.1204L29.2905 27.125L15.9794 13.8138L15.9969 13.8092L16.0151 13.8043L16.034 13.7992L16.0535 13.7937L16.0735 13.7881L16.094 13.7822L16.115 13.7761L16.1364 13.7698L16.1582 13.7634L16.1802 13.7567L16.2025 13.7499L16.225 13.743L16.2477 13.736L16.2705 13.7289L16.2933 13.7217L16.3162 13.7144L16.339 13.7071L16.3617 13.6998L16.3843 13.6924L16.4067 13.685L16.4289 13.6776L16.4508 13.6703L16.4723 13.6629L16.4935 13.6557L16.5142 13.6485L16.5344 13.6414L16.5542 13.6344L16.5733 13.6275L16.5918 13.6208L16.6096 13.6142L16.6267 13.6078L16.643 13.6016Z" fill="#B0BEC5"/>
<path fill-rule="evenodd" clip-rule="evenodd" d="M15.9794 13.8135L29.2905 27.1246L28.8187 27.2372L15.5076 13.9261L15.9794 13.8135Z" fill="#B0BEC5"/>
<path fill-rule="evenodd" clip-rule="evenodd" d="M15.5076 13.9268L28.8187 27.2379L28.5779 27.2837L15.2668 13.9725L15.5076 13.9268Z" fill="#B0BEC5"/>
<path fill-rule="evenodd" clip-rule="evenodd" d="M15.2667 13.9727L28.5779 27.2838L28.5559 27.2876L28.5337 27.2913L28.5112 27.295L28.4885 27.2988L28.4655 27.3024L28.4423 27.306L28.4189 27.3096L28.3953 27.3132L28.3716 27.3167L28.3477 27.3202L28.3237 27.3235L28.2996 27.3269L28.2754 27.3302L28.2512 27.3334L28.2269 27.3365L28.2025 27.3396L28.1781 27.3427L28.1538 27.3456L28.1295 27.3484L28.1052 27.3512L28.081 27.3538L28.0568 27.3564L28.0328 27.3589L28.0088 27.3613L27.985 27.3635L27.9613 27.3657L27.9378 27.3677L27.9145 27.3697L27.8915 27.3715L27.8686 27.3732L27.846 27.3747L27.8236 27.3762L27.7906 27.3781L27.7577 27.3799L27.7247 27.3817L27.6917 27.3832L27.6588 27.3846L27.6259 27.3859L27.5929 27.3871L27.56 27.3881L27.5271 27.3889L27.4942 27.3897L27.4613 27.3902L27.4283 27.3906L27.3954 27.3909L27.3625 27.391L27.3296 27.391L27.2967 27.3908L27.2638 27.3904L27.231 27.3899L27.198 27.3892L27.1651 27.3884L27.1323 27.3873L27.0994 27.3861L27.0665 27.3848L27.0336 27.3832L27.0007 27.3815L26.9678 27.3796L26.9349 27.3775L26.902 27.3752L26.8692 27.3728L26.8363 27.3701L26.8033 27.3673L26.7704 27.3642L13.4593 14.0531L13.4922 14.0561L13.5251 14.059L13.558 14.0616L13.5909 14.0641L13.6238 14.0664L13.6567 14.0685L13.6896 14.0704L13.7225 14.0721L13.7554 14.0736L13.7883 14.075L13.8211 14.0762L13.854 14.0772L13.8869 14.0781L13.9198 14.0788L13.9527 14.0793L13.9856 14.0797L14.0185 14.0799L14.0514 14.0799L14.0843 14.0798L14.1172 14.0795L14.1501 14.0791L14.183 14.0785L14.216 14.0778L14.2489 14.077L14.2818 14.0759L14.3148 14.0748L14.3477 14.0735L14.3807 14.0721L14.4136 14.0705L14.4465 14.0688L14.4795 14.067L14.5125 14.065L14.5349 14.0636L14.5575 14.062L14.5803 14.0603L14.6034 14.0585L14.6268 14.0566L14.6502 14.0546L14.6739 14.0524L14.6977 14.0501L14.7216 14.0477L14.7457 14.0453L14.7698 14.0427L14.7941 14.0401L14.8184 14.0373L14.8427 14.0344L14.867 14.0315L14.8914 14.0285L14.9157 14.0254L14.94 14.0223L14.9643 14.0191L14.9885 14.0158L15.0126 14.0124L15.0366 14.009L15.0605 14.0056L15.0842 14.0021L15.1078 13.9985L15.1312 13.9949L15.1544 13.9913L15.1773 13.9876L15.2001 13.9839L15.2226 13.9802L15.2448 13.9764L15.2667 13.9727Z" fill="#B0BEC5"/>
<path fill-rule="evenodd" clip-rule="evenodd" d="M13.4593 14.0527L26.7704 27.3639L26.3289 27.3101L13.0178 13.999L13.4593 14.0527Z" fill="#B0BEC5"/>
<path fill-rule="evenodd" clip-rule="evenodd" d="M13.0178 13.999L26.3289 27.3101L26.1251 27.275L12.814 13.9639L13.0178 13.999Z" fill="#B0BEC5"/>
<path fill-rule="evenodd" clip-rule="evenodd" d="M12.814 13.9642L26.1252 27.2753L25.9005 27.2301L12.5894 13.9189L12.814 13.9642Z" fill="#B0BEC5"/>
<path fill-rule="evenodd" clip-rule="evenodd" d="M12.5894 13.9191L25.9005 27.2302L25.7215 27.1881L12.4103 13.877L12.5894 13.9191Z" fill="#B0BEC5"/>
<path fill-rule="evenodd" clip-rule="evenodd" d="M12.4103 13.8765L25.7214 27.1876L25.5101 27.1314L12.1991 13.8203L12.4103 13.8765Z" fill="#B0BEC5"/>
<path fill-rule="evenodd" clip-rule="evenodd" d="M12.1991 13.8205L25.5102 27.1316L25.1275 27.0123L11.8165 13.7012L12.1991 13.8205Z" fill="#B0BEC5"/>
<path fill-rule="evenodd" clip-rule="evenodd" d="M11.8165 13.7008L25.1276 27.012L24.895 26.9283L11.5839 13.6172L11.8165 13.7008Z" fill="#B0BEC5"/>
<path fill-rule="evenodd" clip-rule="evenodd" d="M11.5839 13.6174L24.895 26.9285L24.6473 26.8287L11.3362 13.5176L11.5839 13.6174Z" fill="#B0BEC5"/>
<path fill-rule="evenodd" clip-rule="evenodd" d="M11.3362 13.5176L24.6473 26.8287L24.4652 26.7486L11.1541 13.4375L11.3362 13.5176Z" fill="#B0BEC5"/>
<path fill-rule="evenodd" clip-rule="evenodd" d="M11.1541 13.4375L24.4652 26.7486L24.466 26.7494L11.1549 13.4383L11.1541 13.4375Z" fill="#B0BEC5"/>
<path fill-rule="evenodd" clip-rule="evenodd" d="M11.1549 13.4384L24.466 26.7495L24.4143 26.7252L11.1032 13.4141L11.1549 13.4384Z" fill="#B0BEC5"/>
<path fill-rule="evenodd" clip-rule="evenodd" d="M11.0187 13.3742L24.3298 26.6853L24.3026 26.6724L10.9915 13.3613L11.0187 13.3742Z" fill="#B0BEC5"/>
<path fill-rule="evenodd" clip-rule="evenodd" d="M11.1051 13.4147L24.4162 26.7258L24.3067 26.6744L10.9956 13.3633L11.1051 13.4147Z" fill="#B0BEC5"/>
<path fill-rule="evenodd" clip-rule="evenodd" d="M10.9933 13.3624L24.3044 26.6735L24.3007 26.6715L10.9896 13.3604L10.9933 13.3624Z" fill="#B0BEC5"/>
<path fill-rule="evenodd" clip-rule="evenodd" d="M10.9896 13.3602L24.3007 26.6713L24.2992 26.6705L10.9881 13.3594L10.9896 13.3602Z" fill="#B0BEC5"/>
<path fill-rule="evenodd" clip-rule="evenodd" d="M10.9881 13.3597L24.2992 26.6708L24.2906 26.6666L10.9795 13.3555L10.9881 13.3597Z" fill="#B0BEC5"/>
<path fill-rule="evenodd" clip-rule="evenodd" d="M10.9795 13.355L24.2906 26.6661L23.9193 26.4742L10.6082 13.1631L10.9795 13.355Z" fill="#B0BEC5"/>
<path fill-rule="evenodd" clip-rule="evenodd" d="M10.6082 13.1633L23.9193 26.4745L23.91 26.4693L10.5989 13.1582L10.6082 13.1633Z" fill="#B0BEC5"/>
<path fill-rule="evenodd" clip-rule="evenodd" d="M10.6026 13.1609L23.9137 26.472L23.8985 26.4635L10.5873 13.1523L10.6026 13.1609Z" fill="#B0BEC5"/>
<path fill-rule="evenodd" clip-rule="evenodd" d="M10.5873 13.1518L23.8984 26.4629L23.893 26.4605L10.5819 13.1494L10.5873 13.1518Z" fill="#B0BEC5"/>
<path fill-rule="evenodd" clip-rule="evenodd" d="M10.5265 13.1182L23.8376 26.4294L23.6833 26.3404L10.3722 13.0293L10.5265 13.1182Z" fill="#B0BEC5"/>
<path fill-rule="evenodd" clip-rule="evenodd" d="M10.0213 12.8216L23.3325 26.1327L23.3266 26.1295L10.0154 12.8184L10.0213 12.8216Z" fill="#B0BEC5"/>
<path fill-rule="evenodd" clip-rule="evenodd" d="M10.1251 12.8826L23.4363 26.1937L23.3325 26.1344L10.0214 12.8232L10.1251 12.8826Z" fill="#B0BEC5"/>
<path fill-rule="evenodd" clip-rule="evenodd" d="M10.3722 13.0291L23.6833 26.3402L23.4363 26.1939L10.1252 12.8828L10.3722 13.0291Z" fill="#B0BEC5"/>
<path fill-rule="evenodd" clip-rule="evenodd" d="M10.0154 12.8192L23.3266 26.1303L23.1996 26.066L9.88846 12.7549L10.0154 12.8192Z" fill="#B0BEC5"/>
<path fill-rule="evenodd" clip-rule="evenodd" d="M9.88847 12.7542L23.1996 26.0653L23.0757 26.0103L9.76462 12.6992L9.88847 12.7542Z" fill="#B0BEC5"/>
<path fill-rule="evenodd" clip-rule="evenodd" d="M9.76463 12.6993L23.0757 26.0104L23.0694 26.0079L23.0631 26.0054L23.0567 26.0029L23.0503 26.0004L23.044 25.998L23.0376 25.9956L23.0312 25.9932L23.0248 25.9908L9.71368 12.6797L9.72008 12.6821L9.72645 12.6845L9.73284 12.6869L9.73921 12.6893L9.74557 12.6918L9.75193 12.6943L9.7583 12.6968L9.76463 12.6993Z" fill="#B0BEC5"/>
<path fill-rule="evenodd" clip-rule="evenodd" d="M9.71367 12.68L23.0248 25.9911L23.024 25.9909L23.0231 25.9906L23.0223 25.9903L23.0215 25.9901L23.0207 25.9897L23.0199 25.9895L23.019 25.9891L23.0182 25.9889L9.70709 12.6777L9.70794 12.678L9.70874 12.6783L9.70955 12.6786L9.7104 12.6789L9.71121 12.6792L9.71201 12.6795L9.71286 12.6797L9.71367 12.68Z" fill="#B0BEC5"/>
<path fill-rule="evenodd" clip-rule="evenodd" d="M9.70711 12.6778L23.0182 25.9889L23.007 25.9849L9.69589 12.6738L9.70711 12.6778Z" fill="#B0BEC5"/>
<path fill-rule="evenodd" clip-rule="evenodd" d="M9.67593 12.667L22.9871 25.9781L22.9895 25.979L22.9919 25.9798L22.9944 25.9806L22.9968 25.9814L22.9993 25.9822L23.0017 25.983L23.0042 25.9839L23.0066 25.9847L9.69552 12.6736L9.69305 12.6727L9.69063 12.6719L9.68817 12.6711L9.68574 12.6703L9.68328 12.6695L9.68082 12.6686L9.67836 12.6678L9.67593 12.667Z" fill="#B0BEC5"/>
<path fill-rule="evenodd" clip-rule="evenodd" d="M9.65157 12.659L22.9627 25.9702L22.9623 25.9701L22.962 25.97L22.9616 25.9699L22.9612 25.9698L22.9608 25.9697L22.9605 25.9695L22.9601 25.9694L22.9597 25.9693L9.64862 12.6582L9.64901 12.6583L9.64936 12.6584L9.64971 12.6585L9.6501 12.6587L9.65045 12.6588L9.65084 12.6588L9.65119 12.659L9.65157 12.659Z" fill="#B0BEC5"/>
<path fill-rule="evenodd" clip-rule="evenodd" d="M9.64863 12.6576L22.9597 25.9687L22.9553 25.9674L9.64417 12.6562L9.64863 12.6576Z" fill="#B0BEC5"/>
<path fill-rule="evenodd" clip-rule="evenodd" d="M9.64416 12.6561L22.9553 25.9672L22.913 25.9547L9.60187 12.6436L9.64416 12.6561Z" fill="#B0BEC5"/>
<path fill-rule="evenodd" clip-rule="evenodd" d="M9.60188 12.6435L22.913 25.9546L22.9113 25.9541L22.9096 25.9537L22.9079 25.9532L22.9062 25.9527L22.9045 25.9522L22.9028 25.9517L22.9011 25.9513L22.8994 25.9508L9.58835 12.6396L9.59004 12.6401L9.59172 12.6406L9.59341 12.6411L9.5951 12.6416L9.59679 12.6421L9.59851 12.6426L9.6002 12.643L9.60188 12.6435Z" fill="#B0BEC5"/>
<path fill-rule="evenodd" clip-rule="evenodd" d="M9.58834 12.6402L22.8994 25.9513L22.8973 25.9508L22.8951 25.9502L22.8929 25.9497L22.8908 25.9491L22.8886 25.9485L22.8865 25.948L22.8843 25.9474L22.8821 25.9469L9.57104 12.6357L9.57319 12.6363L9.57533 12.6369L9.57751 12.6374L9.57966 12.638L9.58184 12.6386L9.58398 12.6391L9.58616 12.6396L9.58834 12.6402Z" fill="#B0BEC5"/>
<path fill-rule="evenodd" clip-rule="evenodd" d="M9.57105 12.6353L22.8821 25.9464L22.8809 25.9461L22.8798 25.9458L22.8786 25.9455L22.8774 25.9452L22.8762 25.9449L22.875 25.9446L22.8738 25.9443L22.8726 25.944L9.56152 12.6328L9.56272 12.6331L9.56388 12.6334L9.56507 12.6338L9.56627 12.634L9.56747 12.6344L9.56866 12.6347L9.56986 12.635L9.57105 12.6353Z" fill="#B0BEC5"/>
<path fill-rule="evenodd" clip-rule="evenodd" d="M7.20621 10.7867L20.5173 24.0978L20.483 24.0671L20.4483 24.0387L20.4135 24.0128L20.3779 23.9874L20.3409 23.9608L20.3026 23.9331L20.2633 23.9043L20.2231 23.8746L20.1822 23.8442L20.1407 23.8131L20.0988 23.7816L20.0567 23.7498L20.0146 23.7178L19.9725 23.6857L19.9307 23.6537L19.8893 23.6219L19.8485 23.5905L19.8085 23.5596L19.7694 23.5293L19.7314 23.4998L19.6947 23.4711L19.6594 23.4435L19.6257 23.4172L19.5937 23.3921L19.5636 23.3684L19.5356 23.3464L19.5099 23.3262L19.4866 23.3077L19.4658 23.2913L19.4478 23.2771L19.4327 23.2651L19.4206 23.2555L19.4118 23.2485L19.4065 23.2442L19.4046 23.2428L6.09348 9.93164L6.09534 9.93312L6.10072 9.93741L6.10954 9.9444L6.12157 9.95397L6.13668 9.96592L6.15468 9.98019L6.17546 9.99661L6.19877 10.015L6.22454 10.0353L6.25252 10.0573L6.28258 10.0809L6.31457 10.1061L6.34829 10.1324L6.38362 10.16L6.42036 10.1886L6.45833 10.2182L6.49742 10.2485L6.53743 10.2794L6.57821 10.3108L6.61959 10.3426L6.66139 10.3746L6.70344 10.4067L6.74562 10.4387L6.78771 10.4705L6.82958 10.502L6.87106 10.5331L6.91198 10.5635L6.9522 10.5931L6.99151 10.6219L7.02976 10.6497L7.06678 10.6763L7.10243 10.7016L7.13723 10.7275L7.17186 10.756L7.20621 10.7867Z" fill="#B0BEC5"/>
<path fill-rule="evenodd" clip-rule="evenodd" d="M9.04408 12.6133L22.3552 25.9244L22.3368 25.928L22.3184 25.932L22.2998 25.9363L22.2812 25.941L22.2625 25.9461L22.2437 25.9515L22.2249 25.9572L22.2061 25.9633L22.1872 25.9697L22.1684 25.9764L22.1495 25.9835L22.1307 25.9908L22.112 25.9984L22.0933 26.0063L22.0746 26.0145L22.0561 26.023L22.0377 26.0317L22.0193 26.0407L22.0011 26.0499L21.9831 26.0594L21.9652 26.0691L21.9475 26.079L21.93 26.0891L21.9127 26.0995L21.8956 26.1101L21.8788 26.1209L21.8621 26.1318L21.8458 26.1429L21.8298 26.1542L21.814 26.1657L21.7985 26.1773L21.7833 26.1891L8.47226 12.8779L8.48738 12.8662L8.50285 12.8546L8.51863 12.8431L8.5347 12.8318L8.55105 12.8206L8.56764 12.8097L8.58448 12.7989L8.6016 12.7884L8.6189 12.778L8.6364 12.7679L8.65412 12.7579L8.67198 12.7482L8.69002 12.7388L8.70823 12.7295L8.72654 12.7206L8.74497 12.7119L8.76353 12.7034L8.78216 12.6952L8.80087 12.6873L8.81964 12.6797L8.83841 12.6723L8.85726 12.6653L8.8761 12.6586L8.89498 12.6522L8.91379 12.6461L8.9326 12.6404L8.95137 12.635L8.97011 12.6299L8.98874 12.6252L9.00727 12.6208L9.02573 12.6169L9.04408 12.6133Z" fill="#B0BEC5"/>
<path fill-rule="evenodd" clip-rule="evenodd" d="M8.47228 12.8779L21.7834 26.1891L21.4812 26.4186L8.17007 13.1075L8.47228 12.8779Z" fill="#B0BEC5"/>
<path fill-rule="evenodd" clip-rule="evenodd" d="M8.17005 13.1074L21.4812 26.4185L21.4698 26.4263L21.4579 26.4345L21.4453 26.443L21.4321 26.4517L21.4183 26.4607L21.4041 26.47L21.3895 26.4795L21.3744 26.4891L21.359 26.4989L21.3432 26.5088L21.3271 26.5188L21.3109 26.5289L21.2944 26.539L21.2778 26.549L21.261 26.5591L21.2442 26.5692L21.2274 26.5791L21.2106 26.5889L21.1938 26.5986L21.1772 26.6081L21.1607 26.6174L21.1444 26.6265L21.1283 26.6353L21.1125 26.6439L21.097 26.6521L21.0819 26.66L21.0672 26.6675L21.0529 26.6746L21.0391 26.6813L21.0259 26.6875L21.0132 26.6933L21.0012 26.6985L7.69009 13.3874L7.70212 13.3821L7.71481 13.3764L7.72803 13.3702L7.74181 13.3635L7.75608 13.3564L7.77081 13.3488L7.78593 13.3409L7.8014 13.3327L7.81718 13.3242L7.83325 13.3153L7.84956 13.3063L7.86605 13.2969L7.88271 13.2874L7.89945 13.2778L7.91625 13.2679L7.93309 13.258L7.9499 13.248L7.96663 13.2379L7.98326 13.2278L7.99975 13.2177L8.01603 13.2077L8.03209 13.1977L8.04784 13.1878L8.06328 13.178L8.07836 13.1683L8.09302 13.1589L8.10726 13.1496L8.12097 13.1406L8.13415 13.1318L8.14674 13.1233L8.15873 13.1152L8.17005 13.1074Z" fill="#B0BEC5"/>
<path fill-rule="evenodd" clip-rule="evenodd" d="M7.69011 13.3867L21.0012 26.6978L20.9847 26.7057L20.9682 26.7134L20.9518 26.721L20.9354 26.7285L20.919 26.7359L20.9026 26.7432L20.8862 26.7503L20.8699 26.7573L20.8536 26.7642L20.8373 26.771L20.821 26.7777L20.8048 26.7843L20.7886 26.7907L20.7724 26.797L20.7563 26.8032L20.7402 26.8094L20.7241 26.8154L20.708 26.8213L20.692 26.8271L20.6759 26.8327L20.66 26.8383L20.644 26.8438L20.6281 26.8491L20.6122 26.8544L20.5964 26.8596L20.5805 26.8646L20.5647 26.8696L20.549 26.8744L20.5333 26.8791L20.5176 26.8838L20.5019 26.8883L20.4863 26.8928L7.17517 13.5816L7.19081 13.5772L7.20646 13.5727L7.22214 13.568L7.23785 13.5633L7.25364 13.5585L7.26942 13.5535L7.28524 13.5484L7.3011 13.5433L7.31699 13.538L7.33288 13.5327L7.34884 13.5272L7.36484 13.5216L7.38084 13.516L7.39687 13.5102L7.41293 13.5042L7.42903 13.4982L7.44517 13.4921L7.46131 13.4859L7.47748 13.4796L7.49369 13.4731L7.50993 13.4666L7.52617 13.4599L7.54248 13.4531L7.5588 13.4462L7.57511 13.4391L7.59146 13.432L7.60787 13.4248L7.62426 13.4174L7.64068 13.4099L7.65713 13.4023L7.67362 13.3946L7.69011 13.3867Z" fill="#B0BEC5"/>
<path fill-rule="evenodd" clip-rule="evenodd" d="M7.17517 13.582L20.4863 26.8932L20.4638 26.8994L7.15274 13.5883L7.17517 13.582Z" fill="#B0BEC5"/>
<path fill-rule="evenodd" clip-rule="evenodd" d="M7.15273 13.5879L20.4638 26.899L20.408 26.9137L20.3524 26.9272L20.2971 26.9396L20.2422 26.9509L20.1876 26.9611L20.1335 26.9702L20.0797 26.9783L20.0263 26.9854L19.9734 26.9914L19.9209 26.9965L19.8689 27.0006L19.8173 27.0038L19.7663 27.0061L19.7158 27.0075L19.6658 27.008L19.6164 27.0077L19.5675 27.0065L19.5193 27.0045L19.4716 27.0018L19.4246 26.9983L19.3783 26.994L19.3326 26.989L19.2875 26.9833L19.2432 26.9769L19.1996 26.9699L19.1567 26.9622L19.1146 26.9539L19.0732 26.9451L19.0327 26.9356L18.9929 26.9256L18.954 26.915L18.9159 26.904L5.60477 13.5928L5.64288 13.6039L5.68179 13.6144L5.72156 13.6245L5.76213 13.6339L5.80347 13.6428L5.84559 13.6511L5.88844 13.6588L5.93207 13.6658L5.9764 13.6722L6.02144 13.6779L6.06714 13.6829L6.11351 13.6871L6.16052 13.6907L6.20819 13.6934L6.25642 13.6954L6.30526 13.6966L6.35469 13.6969L6.40468 13.6964L6.4552 13.695L6.50621 13.6927L6.55775 13.6895L6.60978 13.6854L6.66227 13.6803L6.71521 13.6742L6.76858 13.6672L6.82237 13.6591L6.87655 13.6499L6.93111 13.6397L6.98599 13.6285L7.04125 13.6161L7.09684 13.6026L7.15273 13.5879Z" fill="#B0BEC5"/>
<path fill-rule="evenodd" clip-rule="evenodd" d="M5.60478 13.5934L18.9159 26.9045L18.9088 26.9023L18.9001 26.8995L18.8902 26.8962L18.8792 26.8924L18.8673 26.8882L18.8549 26.8837L18.8421 26.8788L18.8291 26.8737L18.8163 26.8685L18.8037 26.8631L18.7918 26.8576L18.7806 26.8522L18.7705 26.8468L18.7616 26.8415L18.7542 26.8365L18.7486 26.8316L5.43747 13.5205L5.44313 13.5254L5.45051 13.5304L5.45937 13.5357L5.46953 13.5411L5.48068 13.5465L5.49263 13.5519L5.50515 13.5573L5.51801 13.5626L5.53099 13.5677L5.54378 13.5725L5.55623 13.5771L5.56808 13.5813L5.57908 13.5851L5.58903 13.5884L5.59768 13.5912L5.60478 13.5934Z" fill="#B0BEC5"/>
<path fill-rule="evenodd" clip-rule="evenodd" d="M9.56151 12.6332L22.8726 25.9444L22.8568 25.9405L22.8409 25.9368L22.825 25.9333L22.8091 25.9299L22.7932 25.9268L22.7773 25.9239L22.7613 25.9212L22.7454 25.9186L22.7294 25.9163L22.7134 25.9142L22.6973 25.9123L22.6812 25.9106L22.6652 25.9091L22.649 25.9079L22.6329 25.9068L22.6167 25.906L22.6005 25.9054L22.5843 25.905L22.5681 25.9049L22.5518 25.9049L22.5355 25.9053L22.5191 25.9058L22.5028 25.9066L22.4864 25.9076L22.4699 25.9089L22.4535 25.9104L22.437 25.9121L22.4204 25.9141L22.4039 25.9164L22.3873 25.9189L22.3706 25.9217L22.3539 25.9247L9.04282 12.6136L9.05952 12.6106L9.07614 12.6078L9.09274 12.6053L9.10933 12.603L9.12585 12.601L9.14234 12.5993L9.15883 12.5978L9.17525 12.5965L9.19167 12.5955L9.20802 12.5947L9.22436 12.5941L9.24068 12.5938L9.25695 12.5938L9.2732 12.5939L9.28944 12.5943L9.30561 12.5949L9.32178 12.5957L9.33792 12.5967L9.35405 12.598L9.37012 12.5995L9.38619 12.6012L9.40225 12.6031L9.41825 12.6052L9.43425 12.6075L9.45024 12.6101L9.4662 12.6128L9.48213 12.6157L9.49805 12.6188L9.51395 12.6222L9.5298 12.6257L9.54566 12.6294L9.56151 12.6332Z" fill="#B0BEC5"/>
<path fill-rule="evenodd" clip-rule="evenodd" d="M10.9956 13.3637L10.9943 13.3631L10.9956 13.3637ZM10.5873 13.1521L10.5819 13.1498L10.5708 13.1429L10.5873 13.1521V13.1521ZM9.6959 12.6737L9.67594 12.667C9.68248 12.6692 9.689 12.6714 9.69552 12.6736C9.69565 12.6736 9.69577 12.6737 9.6959 12.6737V12.6737ZM11.105 10.7222C11.9562 10.3571 13.0828 9.99055 14.435 10.0726C14.6985 10.0885 14.9912 10.1288 15.2488 10.1861L15.2461 10.186C17.3565 10.6521 18.5844 12.2853 18.5622 12.3292C18.543 12.3653 18.519 12.4021 18.4925 12.4391L18.4943 12.4386L18.468 12.4741C18.4185 12.5412 18.3264 12.6356 18.2635 12.6932L18.2645 12.6929L18.1774 12.7696C18.0421 12.8787 17.94 12.954 17.7927 13.0472L17.7921 13.0474L17.623 13.1492L17.2508 13.3448L16.8612 13.5176L16.643 13.6017C16.4734 13.6672 16.1624 13.7663 15.9794 13.814L15.5076 13.9266L15.2668 13.9724C15.0344 14.0127 14.7496 14.0502 14.5125 14.0647C14.1608 14.0863 13.8103 14.0862 13.4593 14.0528L13.0178 13.9991L12.814 13.9639L12.5894 13.9187L12.4103 13.8766L12.1991 13.8204L11.8165 13.7011L11.5839 13.6175L11.3362 13.5176L11.1541 13.4376L11.1549 13.4383L11.1032 13.414L11.105 13.4151L10.9956 13.3637L11.0187 13.3741L10.9915 13.3612L10.9933 13.3624L10.9896 13.3604L10.9881 13.3596L10.9795 13.3553L10.6082 13.1634L10.5989 13.1583L10.6026 13.1607L10.5873 13.1521L10.5902 13.1534L10.5265 13.1183L10.3722 13.0294L10.1251 12.8831L10.1251 12.8823L10.0214 12.8229V12.8221L10.0154 12.8188L9.88848 12.7545L9.7646 12.6995C9.7477 12.6928 9.73072 12.6863 9.71368 12.6799C9.71147 12.6793 9.70929 12.6785 9.70711 12.6777L9.6959 12.6737C9.68118 12.6685 9.6664 12.6636 9.65158 12.6588C9.65059 12.6586 9.64961 12.6583 9.64864 12.6579L9.64416 12.6566L9.60187 12.6441C9.59735 12.6428 9.59282 12.6415 9.58832 12.6402C9.58254 12.6387 9.57678 12.6372 9.57102 12.6357C9.56785 12.6349 9.56467 12.6341 9.56151 12.6333C9.39261 12.5908 9.22094 12.58 9.04282 12.6137L9.04406 12.6129C8.8492 12.6493 8.632 12.7512 8.47225 12.8776L8.17006 13.1072C8.0531 13.1884 7.81514 13.3342 7.6901 13.3871C7.51406 13.4715 7.34161 13.5352 7.17517 13.5821L7.15272 13.5883C6.55506 13.751 6.0065 13.7138 5.60478 13.5933C5.57137 13.5832 5.46258 13.5455 5.43747 13.5204L5.56207 13.5135C6.02567 13.4589 6.68825 13.0514 6.99586 12.7148C7.33219 12.347 7.87333 11.8916 7.87333 11.8916C7.81938 11.6823 7.47476 10.9643 7.10244 10.7017C6.73013 10.4391 6.0935 9.93173 6.0935 9.93173C6.74686 9.86846 7.35447 10.1182 7.90737 10.4439C8.29075 10.6698 8.74107 11.0025 9.0417 11.1901C9.16032 11.2641 9.35318 11.3753 9.49405 11.3842C9.76534 11.4019 10.3176 11.0628 11.105 10.7222L11.105 10.7222Z" fill="#B0BEC5"/>
<path fill-rule="evenodd" clip-rule="evenodd" d="M18.5622 12.3333C18.5882 12.2836 17.0389 10.2078 14.4353 10.0484C13.0837 9.96561 11.9563 10.3363 11.1055 10.707C10.3172 11.0504 9.76617 11.3939 9.49364 11.3768C8.92679 11.3414 7.58072 9.74734 6.09296 9.9067C6.09296 9.90669 6.73058 10.4203 7.10251 10.686C7.47452 10.9517 7.81985 11.6779 7.87295 11.8905C7.87295 11.8905 7.33272 12.3509 6.9962 12.723C6.65967 13.0949 5.89806 13.5554 5.43753 13.5377C5.5261 13.6262 6.97602 14.1263 8.41319 12.9354C9.03312 12.4218 9.59991 12.5812 10.0781 12.8646C10.5564 13.148 11.9556 14.0868 14.0102 14.1045C16.0648 14.1222 18.1548 13.1126 18.5622 12.3333L18.5622 12.3333Z" fill="#FF9100"/>
<path fill-rule="evenodd" clip-rule="evenodd" d="M15.2486 10.1638C14.6924 10.1478 13.8721 10.182 13.0183 10.4202C11.495 10.8454 10.3261 11.6602 9.97181 12.0616C9.80916 12.2459 9.53701 12.4377 9.27419 12.6004C9.00238 12.5954 8.71403 12.6861 8.41315 12.9354C8.17111 13.136 7.92873 13.2884 7.69252 13.4031C7.52791 13.4709 7.3511 13.5394 7.17149 13.6023C6.23813 13.8666 5.49993 13.6 5.43756 13.5376C5.89805 13.5553 6.65963 13.0949 6.99621 12.7229C7.33273 12.3509 7.87291 11.8904 7.87291 11.8904C7.8198 11.6779 7.47442 10.9517 7.10247 10.686C6.73052 10.4203 6.09292 9.90671 6.09292 9.90671C6.1637 9.89911 6.23422 9.89551 6.30433 9.89551C7.70712 9.89551 8.9538 11.3431 9.4936 11.3768V11.3768C9.76613 11.3938 10.3172 11.0504 11.1054 10.707C11.9563 10.3363 13.0836 9.96567 14.4352 10.0484C14.7191 10.0658 14.9904 10.1059 15.2486 10.1638L15.2486 10.1638Z" fill="#FFAB40"/>
<path fill-rule="evenodd" clip-rule="evenodd" d="M11.1566 13.4557L11.1551 13.455L11.1566 13.4557H11.1566V13.4557ZM11.1551 13.455L11.1512 13.4532L11.1538 13.4544L11.1551 13.455V13.455ZM11.105 13.4317L11.0922 13.4256L11.0964 13.4276L11.0991 13.4289L11.1023 13.4304L11.105 13.4317V13.4317ZM11.0502 13.4057L11.039 13.4003L10.9977 13.3804L10.9847 13.374L10.989 13.3761L10.9906 13.3769L10.9944 13.3787L11.0424 13.402L11.0463 13.4038L11.0502 13.4057V13.4057ZM10.9422 13.353L10.9382 13.351L10.9384 13.3511L10.9422 13.353V13.353ZM10.9382 13.351L10.938 13.3509H10.938L10.9342 13.349L10.938 13.3509L10.9382 13.351ZM10.883 13.3233L10.8427 13.3027C10.856 13.3095 10.8694 13.3164 10.883 13.3233H10.883V13.3233ZM10.7863 13.2734L10.7439 13.251L10.7516 13.2551L10.7863 13.2734V13.2734ZM10.7439 13.251L10.7406 13.2492L10.739 13.2483L10.739 13.2483L10.7406 13.2492L10.7439 13.251ZM10.6083 13.1772L10.6058 13.1758L10.6174 13.1823L10.6083 13.1772V13.1772ZM10.6058 13.1758L10.6053 13.1755L10.6058 13.1758ZM10.6053 13.1755L10.6022 13.1738L10.5942 13.1694L10.5827 13.1629L10.5713 13.1566L10.6022 13.1738L10.6053 13.1755ZM10.5713 13.1566L10.5627 13.1517L10.5713 13.1566ZM10.5627 13.1517L10.56 13.1502L10.5627 13.1517ZM10.56 13.1502L10.5267 13.1313H10.5267L10.5377 13.1376L10.5488 13.1439L10.56 13.1502V13.1502ZM10.5157 13.1251L10.4835 13.1066L10.4835 13.1066L10.4813 13.1053L10.4835 13.1066L10.5157 13.1251ZM10.4813 13.1053L10.4729 13.1005L10.4813 13.1053ZM10.4729 13.1005L10.4624 13.0945L10.4729 13.1005ZM10.4624 13.0945L10.452 13.0884V13.0884L10.4624 13.0945V13.0945ZM10.4425 13.0829L10.4417 13.0825L10.4315 13.0765L10.4332 13.0775L10.452 13.0884L10.4425 13.0829V13.0829ZM10.4315 13.0765L10.4214 13.0706L10.4315 13.0765ZM10.5157 13.1251L10.5213 13.1283L10.5267 13.1313L10.5157 13.1251ZM10.7363 13.2469L10.739 13.2483L10.7381 13.2479L10.7363 13.2469V13.2469ZM10.5157 13.1251V13.1251V13.1251ZM9.86509 12.7512V12.7512C9.67899 12.6638 9.48145 12.6044 9.27423 12.6006C9.27422 12.6006 9.27429 12.6006 9.27423 12.6006C9.44464 12.6038 9.60859 12.6446 9.76498 12.7075L9.76579 12.7079L9.76605 12.708L9.78334 12.7151L9.78595 12.7162L9.7866 12.7164C9.80651 12.7247 9.8263 12.7334 9.84595 12.7424L9.84707 12.7429L9.86494 12.7512L9.8651 12.7512L9.86577 12.7515L9.86746 12.7523L9.88309 12.7598L9.86577 12.7515L9.8651 12.7512H9.86509Z" fill="#F4FAF8"/>
<path fill-rule="evenodd" clip-rule="evenodd" d="M14.0771 14.1044C14.098 14.1044 14.1191 14.1042 14.14 14.104L14.1698 14.1036C14.1906 14.1032 14.2115 14.1028 14.2324 14.1022L14.263 14.1013C14.2842 14.1006 14.3055 14.0999 14.3267 14.099L14.3529 14.0979C14.3751 14.0969 14.3972 14.0958 14.4193 14.0946L14.4457 14.093C14.468 14.0917 14.4902 14.0903 14.5124 14.0888L14.5356 14.0871C14.5587 14.0855 14.5819 14.0837 14.605 14.0818L14.6249 14.0801C14.6495 14.078 14.674 14.0758 14.6984 14.0735L14.707 14.0726C14.8813 14.0556 15.0544 14.0322 15.2253 14.0031L15.2392 14.0008C15.2627 13.9967 15.2861 13.9925 15.3095 13.9883L15.3294 13.9847C15.3514 13.9806 15.3734 13.9764 15.3954 13.9721L15.4198 13.9674C15.4416 13.9631 15.4633 13.9587 15.4851 13.9542L15.5077 13.9495C15.5298 13.9449 15.5517 13.9402 15.5736 13.9354L15.5965 13.9304C15.6172 13.9258 15.6378 13.9211 15.6584 13.9164L15.6867 13.9099C15.7067 13.9052 15.7267 13.9004 15.7466 13.8956L15.7725 13.8893C15.7929 13.8843 15.8132 13.8792 15.8334 13.8741L15.8602 13.8672C15.88 13.8621 15.8997 13.8569 15.9194 13.8517L15.946 13.8445C15.9659 13.8392 15.9857 13.8338 16.0054 13.8283L16.0303 13.8213C16.0506 13.8156 16.0708 13.8098 16.091 13.8039L16.1128 13.7975C16.1336 13.7914 16.1544 13.7853 16.175 13.779L16.1962 13.7725C16.2169 13.7662 16.2376 13.7599 16.2581 13.7534L16.2776 13.7472C16.2988 13.7405 16.3199 13.7337 16.3409 13.7269L16.3541 13.7224C16.4518 13.6903 16.5476 13.6566 16.6412 13.6216L16.6589 13.615C16.6753 13.6088 16.6916 13.6026 16.7079 13.5963C16.7176 13.5925 16.7275 13.5888 16.7372 13.585C16.7539 13.5785 16.7705 13.5719 16.7871 13.5653L16.8138 13.5547C16.8296 13.5483 16.8454 13.5418 16.8611 13.5353L16.8909 13.5231C16.9057 13.5169 16.9203 13.5107 16.9349 13.5045L16.9661 13.4913C16.9801 13.4852 16.9941 13.4791 17.008 13.473L17.041 13.4585C17.0545 13.4525 17.068 13.4464 17.0814 13.4404L17.1129 13.4261L17.1532 13.4074L17.1854 13.3923L17.2234 13.3742L17.2563 13.3582C17.2685 13.3523 17.2807 13.3463 17.2928 13.3403L17.325 13.3241C17.337 13.3181 17.3491 13.312 17.361 13.3059L17.3934 13.2891C17.405 13.2831 17.4166 13.2771 17.428 13.271L17.4594 13.2543C17.4707 13.2482 17.4821 13.2421 17.4934 13.236C17.5038 13.2303 17.5141 13.2245 17.5244 13.2188C17.5356 13.2126 17.5468 13.2065 17.5578 13.2003C17.5674 13.1949 17.5768 13.1894 17.5863 13.184C17.5978 13.1775 17.6093 13.171 17.6206 13.1644C17.631 13.1583 17.6412 13.1522 17.6515 13.1461C17.6613 13.1403 17.6712 13.1346 17.6809 13.1288C17.6935 13.1212 17.7059 13.1136 17.7183 13.106C17.7257 13.1014 17.7333 13.0969 17.7407 13.0923C17.7598 13.0805 17.7786 13.0686 17.7971 13.0567L17.7977 13.0563C17.806 13.051 17.814 13.0457 17.8222 13.0404C17.8329 13.0334 17.8436 13.0265 17.8542 13.0195C17.8625 13.014 17.8706 13.0085 17.8787 13.003C17.8889 12.9961 17.8992 12.9893 17.9092 12.9824C17.9171 12.9769 17.9249 12.9715 17.9327 12.966C17.9428 12.959 17.9529 12.9519 17.9628 12.9449C17.9701 12.9396 17.9773 12.9344 17.9845 12.9292C17.9944 12.9221 18.0042 12.9149 18.0138 12.9078C18.0218 12.9019 18.0296 12.896 18.0375 12.8901C18.0461 12.8837 18.0547 12.8772 18.0631 12.8707C18.0708 12.8648 18.0784 12.8588 18.0861 12.8529C18.0944 12.8463 18.1027 12.8398 18.1109 12.8333C18.1185 12.8272 18.126 12.8212 18.1334 12.8151C18.1414 12.8086 18.1492 12.8022 18.157 12.7957C18.1641 12.7898 18.1712 12.7838 18.1782 12.7779C18.1859 12.7714 18.1934 12.7648 18.2009 12.7583L18.2218 12.74C18.229 12.7336 18.2361 12.7272 18.2432 12.7208C18.2498 12.7148 18.2563 12.7088 18.2628 12.7028C18.2697 12.6964 18.2765 12.69 18.2832 12.6835C18.2898 12.6773 18.2963 12.6711 18.3026 12.6648C18.3089 12.6587 18.315 12.6526 18.3211 12.6465C18.3273 12.6403 18.3335 12.6341 18.3395 12.6279C18.3457 12.6215 18.3517 12.6152 18.3576 12.6089C18.3634 12.6028 18.3692 12.5967 18.3749 12.5906C18.3806 12.5843 18.3861 12.578 18.3917 12.5718C18.3972 12.5657 18.4027 12.5596 18.408 12.5535C18.4132 12.5474 18.4183 12.5414 18.4234 12.5353C18.4287 12.529 18.4341 12.5226 18.4392 12.5163C18.4435 12.511 18.4476 12.5057 18.4518 12.5004C18.4573 12.4934 18.4629 12.4864 18.4681 12.4795C18.4717 12.4749 18.4749 12.4703 18.4783 12.4657C18.4838 12.4582 18.4893 12.4508 18.4945 12.4434C17.9737 12.5986 17.1587 12.7799 15.9563 12.9C15.5091 12.9446 15.0329 12.9628 14.5561 12.9628C13.4917 12.9628 12.4247 12.8723 11.6722 12.7837C10.8301 12.6845 10.1506 12.5461 9.62436 12.5461C9.52163 12.5461 9.42474 12.5513 9.33365 12.5632C9.31382 12.5757 9.29401 12.5882 9.27426 12.6004C9.47439 12.6041 9.66551 12.6597 9.84598 12.7422L9.8471 12.7427L9.86489 12.7509L9.86512 12.751L9.8658 12.7514L9.87413 12.7553L9.88312 12.7596L9.88554 12.7607L9.88623 12.7611L9.88933 12.7626L9.90177 12.7687L9.90487 12.7702L9.90519 12.7703L9.90797 12.7717L9.92345 12.7795L9.92476 12.7801L9.94424 12.7901L9.94501 12.7905C9.97063 12.8038 9.99602 12.8175 10.0212 12.8317L10.0213 12.8317C10.0333 12.8385 10.0453 12.8454 10.0572 12.8523L10.0592 12.8535L10.0602 12.854L10.0632 12.8558L10.0662 12.8575L10.0781 12.8646L10.0821 12.8669L10.0862 12.8694L10.0903 12.8718L10.0945 12.8743L10.0987 12.8768L10.1012 12.8783L10.1029 12.8793L10.1072 12.8819L10.1115 12.8845L10.1203 12.8898L10.1248 12.8925L10.1256 12.893L10.1293 12.8952L10.1338 12.8979L10.1384 12.9007L10.1477 12.9063L10.1514 12.9086L10.1524 12.9092L10.1572 12.9121L10.1668 12.9179L10.1717 12.9209L10.1767 12.9239L10.1785 12.925L10.1816 12.9269L10.1866 12.9299L10.2123 12.9455L10.2176 12.9487L10.2229 12.9519L10.2282 12.9551L10.2336 12.9584L10.2367 12.9602L10.2391 12.9617L10.2445 12.965L10.2501 12.9683L10.2556 12.9717L10.2612 12.9751L10.2669 12.9785L10.2677 12.979L10.2725 12.9819L10.2783 12.9853L10.284 12.9888L10.2899 12.9923L10.2902 12.9925L10.3076 13.0029L10.3135 13.0065L10.3196 13.0101L10.3256 13.0137L10.3317 13.0174L10.3338 13.0186L10.3378 13.021L10.344 13.0247L10.3503 13.0284L10.3565 13.0321L10.3628 13.0359L10.3687 13.0394L10.3692 13.0396L10.3756 13.0434L10.382 13.0472L10.3885 13.051L10.395 13.0549L10.4015 13.0587L10.4081 13.0626L10.4148 13.0665L10.4215 13.0704L10.4316 13.0763L10.4332 13.0773L10.4521 13.0882L10.4624 13.0943L10.4729 13.1003L10.4813 13.1052L10.4835 13.1064L10.4847 13.1071L10.5133 13.1235L10.5158 13.1249L10.5214 13.1281L10.5267 13.1311L10.56 13.15L10.5627 13.1515L10.5713 13.1564L10.5942 13.1692L10.6053 13.1753L10.6058 13.1756L10.6084 13.177L10.6468 13.1982L10.6492 13.1996L10.653 13.2016L10.6941 13.224L10.6945 13.2242L10.734 13.2455L10.7493 13.2536L10.7772 13.2684L10.7882 13.2741L10.7902 13.2752L10.8294 13.2956L10.837 13.2995L10.8427 13.3025L10.883 13.3231L10.887 13.3251L10.8967 13.33L10.9242 13.3438L10.938 13.3507L10.9382 13.3508L10.952 13.3577L10.9842 13.3735L10.9997 13.3811L11.039 13.4001L11.0502 13.4055L11.0907 13.4247L11.1067 13.4322L11.1487 13.4518L11.1604 13.4572C11.1755 13.4641 11.1908 13.471 11.2062 13.478L11.2179 13.4833C11.2338 13.4904 11.2498 13.4975 11.2659 13.5047L11.274 13.5082C11.2911 13.5157 11.3084 13.5232 11.3258 13.5307L11.3362 13.5352C11.3527 13.5422 11.3693 13.5493 11.3861 13.5564L11.3981 13.5614C11.4153 13.5686 11.4326 13.5758 11.4501 13.5829L11.453 13.5841L11.4574 13.5859C11.475 13.593 11.4927 13.6002 11.5106 13.6073L11.516 13.6095L11.5198 13.611C11.5375 13.618 11.5553 13.625 11.5732 13.632L11.5845 13.6363C11.6027 13.6434 11.6211 13.6504 11.6396 13.6574L11.6512 13.6617C11.6696 13.6686 11.688 13.6755 11.7067 13.6823L11.7209 13.6875C11.7388 13.694 11.7569 13.7005 11.7751 13.7069L11.7901 13.7122C11.807 13.7181 11.824 13.7241 11.8411 13.73L11.851 13.7334C11.8699 13.7398 11.8889 13.7462 11.908 13.7526L11.9238 13.7578C11.9431 13.7642 11.9626 13.7705 11.9821 13.7767L11.9947 13.7808C12.0144 13.787 12.0341 13.7932 12.054 13.7993L12.0713 13.8046C12.0906 13.8105 12.1099 13.8164 12.1293 13.8221L12.1446 13.8266C12.1655 13.8327 12.1864 13.8388 12.2076 13.8448L12.2087 13.8452L12.2091 13.8452C12.2303 13.8512 12.2516 13.8572 12.2731 13.863L12.2903 13.8677C12.3106 13.8732 12.3311 13.8786 12.3518 13.884L12.3673 13.8881C12.3883 13.8935 12.4095 13.8988 12.4308 13.9041L12.4467 13.908C12.4683 13.9133 12.49 13.9186 12.5119 13.9237L12.526 13.927C12.5487 13.9323 12.5715 13.9375 12.5944 13.9426L12.5963 13.943L12.6003 13.9439C12.6221 13.9488 12.644 13.9535 12.6661 13.9581L12.6816 13.9614C12.704 13.9661 12.7266 13.9707 12.7493 13.9752L12.7651 13.9783C12.7883 13.9828 12.8115 13.9872 12.8349 13.9915L12.8482 13.994C12.8723 13.9984 12.8965 14.0027 12.9208 14.0069L12.9328 14.0089C12.9574 14.0131 12.9822 14.0172 13.0071 14.0211L13.0182 14.0228C13.0419 14.0266 13.0656 14.0302 13.0894 14.0336L13.0986 14.035C13.1236 14.0386 13.1487 14.042 13.174 14.0454L13.1882 14.0473C13.2127 14.0505 13.2373 14.0536 13.262 14.0565L13.2795 14.0586C13.3037 14.0614 13.3281 14.0642 13.3526 14.0668L13.3703 14.0686C13.396 14.0713 13.4218 14.0739 13.4478 14.0762L13.4549 14.0769C13.4807 14.0792 13.5066 14.0814 13.5326 14.0834L13.5445 14.0844C13.5714 14.0865 13.5985 14.0884 13.6257 14.0901L13.6364 14.0909C13.6629 14.0925 13.6895 14.0941 13.7162 14.0955L13.7334 14.0963C13.7602 14.0976 13.7872 14.0988 13.8142 14.0998L13.8267 14.1003C13.8544 14.1013 13.8823 14.1021 13.9103 14.1028L13.9225 14.103C13.9516 14.1036 13.9808 14.1041 14.0102 14.1044H14.011L14.0119 14.1044H14.0127H14.0136H14.0144C14.0353 14.1046 14.0562 14.1045 14.0771 14.1044L14.0771 14.1044ZM11.3981 13.5614C11.4153 13.5686 11.4326 13.5758 11.4501 13.5829L11.3981 13.5614ZM12.526 13.927C12.5487 13.9323 12.5715 13.9375 12.5944 13.9426Z" fill="#E65100"/>
<path fill-rule="evenodd" clip-rule="evenodd" d="M9.11243 12.6092C9.15972 12.6033 9.20659 12.6005 9.25295 12.6005C9.26006 12.6005 9.26714 12.6006 9.27426 12.6007C9.27428 12.6007 9.27426 12.6007 9.27426 12.6007C9.29399 12.5884 9.31383 12.576 9.33365 12.5635C9.25564 12.5736 9.18201 12.5886 9.11243 12.6092V12.6092Z" fill="#C8E09A"/>
<path fill-rule="evenodd" clip-rule="evenodd" d="M18.5615 12.334C18.0018 12.6008 17.0915 12.9184 15.7637 13.0509C14.3185 13.1951 13.0897 13.2204 12 13.092C10.7015 12.9391 9.64763 12.2167 9.04269 12.6196C9.41878 12.5481 9.76718 12.6799 10.0781 12.8641C10.5564 13.1476 11.9555 14.0863 14.0102 14.104C16.0637 14.1217 18.1526 13.1132 18.5615 12.334V12.334Z" fill="#EF6C00"/>
<path fill-rule="evenodd" clip-rule="evenodd" d="M10.0781 12.8643C10.0781 12.8642 11.7607 13.7853 13.7976 13.9742C15.2711 14.1109 17.5613 13.1575 17.7926 13.0593C16.9095 13.6237 15.4512 14.1166 14.0102 14.1041C11.9555 14.0864 10.5563 13.1477 10.0781 12.8643L10.0781 12.8643Z" fill="#D96609"/>
<path fill-rule="evenodd" clip-rule="evenodd" d="M8.83677 12.5166C8.83677 12.5166 8.8079 12.523 8.75358 12.5351C8.69858 12.5455 8.62034 12.5686 8.52056 12.5996C8.32217 12.6642 8.05086 12.7922 7.74182 12.9671C7.43171 13.1389 7.08045 13.3574 6.66758 13.4934C6.46074 13.5622 6.24359 13.6046 6.01412 13.5872C5.86846 13.5793 5.72124 13.557 5.5733 13.531C5.54599 13.5345 5.51939 13.5368 5.49353 13.5378C5.5425 13.5524 5.60117 13.5694 5.66891 13.5868C5.77896 13.6167 5.91416 13.6458 6.07077 13.6614C6.11009 13.6638 6.15048 13.6679 6.19225 13.6688C6.2341 13.6678 6.27706 13.6668 6.32098 13.6658C6.40874 13.6573 6.50088 13.6446 6.59191 13.6207C6.77574 13.5766 6.96624 13.5061 7.15386 13.4155C7.34178 13.3253 7.52721 13.2165 7.7111 13.1044C8.07789 12.8791 8.44678 12.6467 8.83677 12.5166V12.5166Z" fill="#FB8C00"/>
<path fill-rule="evenodd" clip-rule="evenodd" d="M8.58949 12.3984C8.58949 12.3984 8.53004 12.4027 8.42366 12.4144C8.31831 12.4285 8.16962 12.4688 8.0007 12.5392C7.83399 12.6126 7.64987 12.7151 7.45448 12.8176C7.40509 12.842 7.35502 12.8669 7.30416 12.8921C7.25216 12.9143 7.19962 12.9367 7.14646 12.9594C7.03854 13.0019 6.92868 13.0405 6.80865 13.0243C6.80865 13.0243 6.82506 13.0288 6.85527 13.037C6.88561 13.0476 6.93187 13.0518 6.9912 13.0517C7.04997 13.0472 7.1209 13.0381 7.19717 13.0158C7.27377 12.9942 7.36087 12.9709 7.448 12.9323C7.62626 12.8621 7.81327 12.7544 8.00249 12.6536C8.19212 12.5516 8.38868 12.4632 8.58949 12.3984H8.58949Z" fill="#FB8C00"/>
<path fill-rule="evenodd" clip-rule="evenodd" d="M8.61551 12.1855C8.61551 12.1855 8.60862 12.1825 8.59558 12.1766C8.58236 12.171 8.56273 12.1617 8.53623 12.1562C8.4838 12.1418 8.40496 12.135 8.31467 12.1431C8.22431 12.1505 8.12295 12.1711 8.01896 12.1922C7.91439 12.2113 7.8087 12.237 7.69638 12.1982C7.69637 12.1982 7.70248 12.2041 7.71363 12.2147C7.71974 12.22 7.72715 12.2266 7.73572 12.2342C7.74574 12.2401 7.7573 12.2468 7.77003 12.2543C7.82286 12.2825 7.90988 12.3004 8.00599 12.2965C8.10251 12.2937 8.20663 12.2731 8.30838 12.2487C8.41126 12.224 8.50743 12.1948 8.61551 12.1855V12.1855Z" fill="#FB8C00"/>
<path fill-rule="evenodd" clip-rule="evenodd" d="M8.69658 12.0078C8.69683 12.0062 8.66837 12.0021 8.62556 11.9824C8.58231 11.9639 8.52608 11.9296 8.46034 11.8824C8.394 11.8358 8.31755 11.7768 8.22314 11.7248C8.17646 11.6985 8.12392 11.6756 8.06862 11.6587C8.01258 11.6429 7.95226 11.6356 7.89435 11.6419C7.89432 11.6419 7.90199 11.6453 7.91587 11.6517C7.92975 11.6578 7.94951 11.666 7.97288 11.6797C8.02016 11.705 8.0805 11.7465 8.14864 11.7982C8.21733 11.8491 8.29489 11.9102 8.38832 11.9593C8.43463 11.9837 8.48621 12.0037 8.53918 12.0153C8.59295 12.0257 8.64922 12.0244 8.69658 12.0078L8.69658 12.0078Z" fill="#FB8C00"/>
<path fill-rule="evenodd" clip-rule="evenodd" d="M8.79346 11.8083C8.79346 11.8083 8.78233 11.8006 8.7616 11.786C8.74158 11.7703 8.70874 11.7543 8.67443 11.7221C8.60038 11.6662 8.51034 11.5688 8.40574 11.4482C8.35336 11.3878 8.29727 11.3205 8.2347 11.251C8.17148 11.1825 8.10134 11.1078 8.01379 11.0467C7.92809 10.9842 7.82831 10.9345 7.72517 10.9014C7.6222 10.8673 7.51736 10.8422 7.41165 10.8164C7.41165 10.8164 7.46573 10.8469 7.55914 10.8933C7.65193 10.9408 7.78586 11.0011 7.9148 11.099C8.04302 11.1971 8.16066 11.3445 8.30046 11.4864C8.43815 11.6268 8.60865 11.7631 8.79346 11.8083L8.79346 11.8083Z" fill="#FB8C00"/>
<path fill-rule="evenodd" clip-rule="evenodd" d="M8.94746 11.5135C8.94746 11.5135 8.92862 11.5004 8.89351 11.4758C8.87588 11.4637 8.85416 11.4488 8.82865 11.4312C8.80425 11.4123 8.77611 11.3905 8.74448 11.3662C8.61883 11.2682 8.45152 11.1152 8.25405 10.9249C8.05498 10.7375 7.8227 10.5074 7.51671 10.3304C7.3645 10.2429 7.19347 10.1714 7.01133 10.1364C6.92171 10.1208 6.83137 10.107 6.74077 10.0933C6.649 10.0851 6.55693 10.0784 6.46548 10.0723C6.46548 10.0723 6.56759 10.0948 6.73968 10.1328C6.8239 10.1579 6.92833 10.1807 7.0404 10.2178C7.06817 10.227 7.09686 10.2368 7.12617 10.2466C7.15499 10.2581 7.18379 10.2717 7.21358 10.2844C7.27397 10.308 7.33202 10.3443 7.39412 10.3761C7.51475 10.4484 7.63728 10.5355 7.75969 10.6339C7.88187 10.7325 8.00403 10.8418 8.13 10.9511C8.37927 11.1702 8.65375 11.3911 8.94746 11.5135L8.94746 11.5135Z" fill="#FB8C00"/>
<path fill-rule="evenodd" clip-rule="evenodd" d="M15.4743 12.9365C15.4743 12.9365 14.9076 13.2554 14.5887 13.2554C14.2699 13.2554 14.4116 13.6568 14.8486 13.6686C15.2854 13.6803 15.675 13.0781 15.4743 12.9365L15.4743 12.9365Z" fill="#E65100"/>
<path fill-rule="evenodd" clip-rule="evenodd" d="M16.8104 12.0005C16.8104 12.1626 16.9811 12.291 17.1432 12.291C17.2633 12.291 17.3973 12.1626 17.3973 12.0005C17.3973 11.8384 17.2394 11.707 17.0773 11.707C16.9152 11.707 16.8104 11.8384 16.8104 12.0005V12.0005Z" fill="#EF6C00"/>
<path fill-rule="evenodd" clip-rule="evenodd" d="M16.8636 11.9999C16.8636 12.1326 16.9712 12.2401 17.1039 12.2401C17.2365 12.2401 17.3441 12.1326 17.3441 12C17.3441 11.8673 17.2365 11.7598 17.1039 11.7598C16.9712 11.7598 16.8636 11.8673 16.8636 11.9999Z" fill="#FF9100"/>
<path fill-rule="evenodd" clip-rule="evenodd" d="M18.2654 12.7003C18.2654 12.7003 17.8861 12.7937 17.8123 12.4395C17.8123 12.4394 17.7826 12.9878 18.2654 12.7003Z" fill="#E65100"/>
<path fill-rule="evenodd" clip-rule="evenodd" d="M16.922 11.1934C16.922 11.1934 16.9031 11.1982 16.8677 11.2072C16.8499 11.212 16.828 11.2179 16.8022 11.2248C16.7771 11.2341 16.7483 11.2448 16.716 11.2567C16.5902 11.3095 16.408 11.4022 16.2448 11.5816C16.1614 11.6686 16.0858 11.779 16.0311 11.9084C15.9764 12.0373 15.9457 12.1881 15.9594 12.3427C15.9731 12.4975 16.0327 12.6491 16.1264 12.7782C16.2212 12.9079 16.3492 13.0029 16.4771 13.0901C16.4771 13.0901 16.4616 13.0743 16.4329 13.0452C16.4035 13.017 16.3625 12.9737 16.3128 12.9188C16.2644 12.863 16.2084 12.7938 16.1638 12.7071C16.1502 12.6869 16.1418 12.6628 16.1327 12.6386C16.1233 12.6146 16.1137 12.59 16.1038 12.5649C16.0967 12.5389 16.0911 12.512 16.0843 12.485C16.0809 12.4715 16.0776 12.4579 16.0742 12.4441C16.0727 12.43 16.0714 12.4159 16.07 12.4015C16.0352 12.1723 16.1214 11.9106 16.2831 11.695C16.4464 11.4783 16.6767 11.3055 16.922 11.1934V11.1934Z" fill="#E65100"/>
<path fill-rule="evenodd" clip-rule="evenodd" d="M10.9943 13.363L10.9956 13.3636L10.9933 13.3623L10.9943 13.363Z" fill="#ECEFF1"/>
<path fill-rule="evenodd" clip-rule="evenodd" d="M9.64865 12.6576C9.64715 12.6571 9.64566 12.6567 9.64417 12.6562C9.64566 12.6567 9.64715 12.6571 9.64865 12.6576Z" fill="#ECEFF1"/>
<path fill-rule="evenodd" clip-rule="evenodd" d="M10.5819 13.1494L10.5874 13.1518L10.5708 13.1426L10.5819 13.1494Z" fill="#ECEFF1"/>
</g>
<defs>
<clipPath id="clip0_102_103">
<rect width="24" height="24" fill="white"/>
</clipPath>
</defs>
</svg>
